<?xml version="1.0" standalone="no"?><!DOCTYPE svg PUBLIC "-//W3C//DTD SVG 1.1//EN" "http://www.w3.org/Graphics/SVG/1.1/DTD/svg11.dtd"><svg width="64" height="64" viewBox="0 0 64 64" version="1.1" xmlns="http://www.w3.org/2000/svg" xmlns:xlink="http://www.w3.org/1999/xlink"><defs><style type="text/css"><![CDATA[
@font-face { font-family: ifont; src: url("//at.alicdn.com/t/font_1442373896_4754455.eot?#iefix") format("embedded-opentype"), url("//at.alicdn.com/t/font_1442373896_4754455.woff") format("woff"), url("//at.alicdn.com/t/font_1442373896_4754455.ttf") format("truetype"), url("//at.alicdn.com/t/font_1442373896_4754455.svg#ifont") format("svg"); }

]]></style></defs><g class="transform-group"><g transform="scale(0.0625, 0.0625)"><path d="M515.259621 306.722734c0.007984 0.241527 0.036928 0.478064 0.036928 0.724582l0 300.03083c0 12.102315-9.808804 21.911119-21.89016 21.911119l-34.163142 0c-12.080358 0-21.886168-9.808804-21.886168-21.911119L437.357079 371.412135l-23.896234 0L413.460844 605.13573l0 17.471807 0 378.501261c0 12.080358-9.821778 21.888164-21.900141 21.888164l-65.613592 0c-12.077364 0-21.887166-9.806808-21.887166-21.888164L304.059945 644.470751 280.173691 644.470751l0 356.639046c0 12.080358-9.806808 21.888164-21.910121 21.888164l-65.615588 0c-12.078362 0-21.873193-9.806808-21.873193-21.888164L170.774788 622.607538 170.774788 605.13573 170.774788 371.412135l-24.071891 0 0 236.063017c0 12.102315-9.806808 21.913115-21.887166 21.913115L90.675545 629.388267c-12.130261 0-21.913115-9.8108-21.913115-21.913115L68.76243 307.446318c0-0.24552 0.026947 15.961762 0.036928 15.719237-0.007984-0.508006-0.036928-17.45484-0.036928-17.964842 0-54.107111 43.812258-97.907392 97.854496-97.907392 0.379258 0 1.510045 0 1.698676 0l51.236728 0c20.090682 0 40.155415 14.0006 72.401308 14.0006 31.593171 0 55.304767-14.0006 72.374361-14.0006l51.73675 0c0.146713 0 0.295422 0.00998 0.444131 0.011977 0.293426-0.001996 0.585853-0.011977 0.884269-0.011977 54.103119 0 97.9034 60.2441 97.9034 114.352209C515.296549 322.155532 515.269601 306.21373 515.259621 306.722734zM292.030487 207.667588c55.929544 0 101.276798-45.322303 101.276798-101.274802 0-55.955493-45.347254-101.277796-101.276798-101.277796-55.917568 0-101.277796 45.322303-101.277796 101.277796C190.752691 162.346283 236.11292 207.667588 292.030487 207.667588zM965.609272 472.803708c0.007984 0.185637 0.028943 0.368279 0.028943 0.557908l0 230.881158c0 9.313773-7.548228 16.862001-16.844036 16.862001l-26.290549 0c-9.295808 0-16.84204-7.548228-16.84204-16.862001L905.661592 522.583288l-18.39001 0 0 179.856016 0 13.445686 0 291.267979c0 9.295808-7.558208 16.843038-16.853018 16.843038l-50.492185 0c-9.293812 0-16.843038-7.54723-16.843038-16.843038l0-274.442907L784.706305 732.710064l0 274.444903c0 9.29481-7.54723 16.841042-16.862001 16.841042l-50.492185 0c-9.29481 0-16.832059-7.54723-16.832059-16.841042l0-291.269976 0-13.445686L700.52006 522.583288l-18.524746 0 0 181.657491c0 9.313773-7.548228 16.862999-16.844036 16.862999L638.881689 721.103777c-9.33573 0-16.862999-7.548228-16.862999-16.862999L622.01869 473.361617c0-0.188631 0.020959 12.282962 0.028943 12.096327-0.006986-0.392232-0.028943-13.431714-0.028943-13.825942 0-41.636516 33.715019-75.341554 75.30263-75.341554 0.29143 0 1.160728 0 1.307441 0l39.427838 0c15.460743 0 30.901525 10.773915 55.714964 10.773915 24.311422 0 42.559709-10.773915 55.696001-10.773915l39.812087 0c0.113777 0 0.227555 0.006986 0.34233 0.008982 0.227555-0.000998 0.451117-0.008982 0.681666-0.008982 41.63452 0 75.337562 46.359273 75.337562 87.996788C965.640212 484.679467 965.618255 472.412474 965.609272 472.803708zM793.830449 396.577885c43.038772 0 77.93448-34.875747 77.93448-77.933482 0-43.059731-34.895708-77.935478-77.93448-77.935478-43.029789 0-77.935478 34.876745-77.935478 77.935478C715.894971 361.702138 750.799662 396.577885 793.830449 396.577885z" fill="#7cba59"></path></g></g></svg>