<?xml version="1.0" standalone="no"?><!DOCTYPE svg PUBLIC "-//W3C//DTD SVG 1.1//EN" "http://www.w3.org/Graphics/SVG/1.1/DTD/svg11.dtd"><svg width="64" height="64" viewBox="0 0 64 64" version="1.1" xmlns="http://www.w3.org/2000/svg" xmlns:xlink="http://www.w3.org/1999/xlink"><defs><style type="text/css"><![CDATA[
@font-face { font-family: ifont; src: url("//at.alicdn.com/t/font_1442373896_4754455.eot?#iefix") format("embedded-opentype"), url("//at.alicdn.com/t/font_1442373896_4754455.woff") format("woff"), url("//at.alicdn.com/t/font_1442373896_4754455.ttf") format("truetype"), url("//at.alicdn.com/t/font_1442373896_4754455.svg#ifont") format("svg"); }

]]></style></defs><g class="transform-group"><g transform="scale(0.0625, 0.0625)"><path d="M256 512l102.4 102.4 51.2-51.2L307.2 460.8 256 512 256 512zM358.4 409.6l128 128 51.2-51.2-128-128L358.4 409.6 358.4 409.6zM1004.8 332.8l-313.6-307.2c-12.8-12.8-38.4-12.8-51.2 0L19.2 640c-12.8 12.8-12.8 38.4 0 51.2l307.2 307.2c12.8 12.8 38.4 12.8 51.2 0L1004.8 384C1017.6 371.2 1017.6 345.6 1004.8 332.8L1004.8 332.8zM902.4 384 384 902.4c-12.8 12.8-38.4 12.8-51.2 0l-204.8-204.8c-12.8-12.8-12.8-38.4 0-51.2l25.6-25.6L640 121.6c12.8-12.8 38.4-12.8 51.2 0l204.8 204.8C915.2 345.6 915.2 371.2 902.4 384L902.4 384zM563.2 204.8l128 128 51.2-51.2-128-128L563.2 204.8 563.2 204.8zM460.8 307.2l102.4 102.4 51.2-51.2L512 256 460.8 307.2 460.8 307.2zM332.8 691.2l-128-128L147.2 614.4l128 128L332.8 691.2 332.8 691.2z" fill="#7cba59"></path></g></g></svg>