<?xml version="1.0" standalone="no"?><!DOCTYPE svg PUBLIC "-//W3C//DTD SVG 1.1//EN" "http://www.w3.org/Graphics/SVG/1.1/DTD/svg11.dtd"><svg width="64" height="64" viewBox="0 0 64 64" version="1.1" xmlns="http://www.w3.org/2000/svg" xmlns:xlink="http://www.w3.org/1999/xlink"><defs><style type="text/css"><![CDATA[
@font-face { font-family: ifont; src: url("//at.alicdn.com/t/font_1442373896_4754455.eot?#iefix") format("embedded-opentype"), url("//at.alicdn.com/t/font_1442373896_4754455.woff") format("woff"), url("//at.alicdn.com/t/font_1442373896_4754455.ttf") format("truetype"), url("//at.alicdn.com/t/font_1442373896_4754455.svg#ifont") format("svg"); }

]]></style></defs><g class="transform-group"><g transform="scale(0.0625, 0.0625)"><path d="M98.461538 39.384615c-33.476923 0-59.076923 25.6-59.076923 59.076923l0 827.076923c0 31.507692 25.6 59.076923 59.076923 59.076923 31.507692 0 59.076923-25.6 59.076923-59.076923l0-827.076923c0-33.476923-25.6-59.076923-59.076923-59.076923zm862.523077 88.615385c-256 133.907692-458.830769-96.492308-701.046154-7.876923-11.815385 3.938462-23.630769 15.753846-23.630769 29.538462l0 441.107692c0 21.661538 23.630769 37.415385 45.292308 31.507692 232.369231-68.923077 433.230769 149.661538 685.292308 11.815385 9.846154-5.907692 17.723077-15.753846 17.723077-27.569231l0-464.738462c0-11.815385-13.784615-19.692308-23.630769-13.784615zm-55.138462 447.015385l-9.846154 3.938462c-19.692308 9.846154-51.2 11.815385-104.369231 11.815385l-3.938462 0 0-98.461538c-29.538462 0-82.707692-5.907692-118.153846-13.784615l0 104.369231c-33.476923-5.907692-64.984615-11.815385-90.584615-17.723077-9.846154-1.969231-19.692308-5.907692-27.569231-7.876923l0-108.307692c-33.476923-9.846154-84.676923-19.692308-118.153846-27.569231l0 112.246154c-23.630769-3.938462-29.538462-5.907692-55.138462-5.907692-9.846154 0-17.723077 0-31.507692 1.969231l-31.507692 1.969231 0-114.215385c19.692308-3.938462 43.323077-3.938462 68.923077-3.938462 25.6 0 27.569231 1.969231 49.230769 5.907692l0-118.153846c-21.661538-3.938462-98.461538-3.938462-118.153846 1.969231l0-122.092308 17.723077-1.969231c19.692308-1.969231 78.769231 1.969231 100.430769 7.876923l0 114.215385c27.569231 5.907692 74.830769 15.753846 110.276923 25.6 1.969231 0 5.907692 1.969231 7.876923 1.969231l0-114.215385c35.446154 9.846154 76.8 21.661538 118.153846 27.569231l0 112.246154c33.476923 5.907692 86.646154 9.846154 118.153846 9.846154l0-108.307692 3.938462 0c31.507692 0 53.169231-7.876923 92.553846-13.784615l23.630769-7.876923 0 118.153846c-35.446154 9.846154-72.861538 13.784615-110.276923 13.784615l-7.876923 0 0 126.030769 3.938462 0c37.415385 0 78.769231-13.784615 114.215385-29.538462l0 112.246154zm-354.461538-246.153846l0 118.153846c7.876923 1.969231 15.753846 3.938462 23.630769 7.876923 29.538462 7.876923 61.046154 17.723077 94.523077 23.630769l0-122.092308c-41.353846-7.876923-82.707692-17.723077-118.153846-27.569231z" fill="#7cba59"></path></g></g></svg>