<?xml version="1.0" standalone="no"?><!DOCTYPE svg PUBLIC "-//W3C//DTD SVG 1.1//EN" "http://www.w3.org/Graphics/SVG/1.1/DTD/svg11.dtd"><svg width="32" height="32" viewBox="0 0 32 32" version="1.1" xmlns="http://www.w3.org/2000/svg" xmlns:xlink="http://www.w3.org/1999/xlink"><defs><style type="text/css"><![CDATA[
@font-face { font-family: ifont; src: url("//at.alicdn.com/t/font_1442373896_4754455.eot?#iefix") format("embedded-opentype"), url("//at.alicdn.com/t/font_1442373896_4754455.woff") format("woff"), url("//at.alicdn.com/t/font_1442373896_4754455.ttf") format("truetype"), url("//at.alicdn.com/t/font_1442373896_4754455.svg#ifont") format("svg"); }

]]></style></defs><g class="transform-group"><g transform="scale(0.03125, 0.03125)"><path d="M768.371972 481.094106c-3.340071 0-6.214539-0.584308-8.631588-1.782599-2.416026-1.195222-4.444219-2.794649-6.054903-4.783956-1.610684-2.01182-2.851954-4.409426-3.718695-7.169283-0.847298-2.772136-1.343601-5.669116-1.446955-8.708336l-21.768793 0c-0.11461 6.616698 0.828878 12.484336 2.817162 17.576307 1.992377 5.101181 4.814656 9.404184 8.470929 12.938684 3.657296 3.53143 8.086166 6.210445 13.301957 8.055466 5.221932 1.836835 11.001565 2.772136 17.347087 2.772136 5.490038 0 10.750855-0.828878 15.808034-2.454912 5.055133-1.61887 9.529027-4.012384 13.385868-7.142677 3.87833-3.165086 6.970762-7.062859 9.28855-11.725042 2.309602-4.668323 3.458775-9.982352 3.458775-15.94618 0-6.513344-1.768273-12.105712-5.315052-16.762779-3.554966-4.673439-8.455579-7.700379-14.693654-9.113565l0-0.335644c5.28333-1.50426 9.231245-4.386914 11.862165-8.627495 2.63399-4.223185 3.958148-9.113565 3.958148-14.637372 0-5.108345-1.125637-9.608845-3.393283-13.502525-2.25639-3.917216-5.189186-7.219425-8.792247-9.933233-3.599991-2.714831-7.662517-4.753257-12.174274-6.097882-4.519943-1.358951-9.029654-2.045589-13.553691-2.045589-5.810333 0-11.078313 0.953721-15.808034 2.855024-4.726651 1.909489-8.788154 4.589528-12.174274 8.06263-3.390213 3.466961-6.03239 7.620561-7.91425 12.450567-1.874697 4.820796-2.924609 10.169617-3.142573 16.018835l21.780049 0c-0.110517-5.848195 1.313925-10.716063 4.272303-14.556531 2.967588-3.844561 7.338129-5.77247 13.149485-5.77247 4.187369 0 7.906064 1.297552 11.127432 3.897773 3.222391 2.611477 4.848425 6.348592 4.848425 11.227716 0 3.25616-0.786922 5.860475-2.339278 7.814989-1.565658 1.946328-3.558036 3.454682-5.972015 4.477988-2.427282 1.034563-5.042853 1.657756-7.826246 1.862417-2.805906 0.217964-5.431709 0.217964-7.90197 0l0 16.282848c2.794649 0 5.726421 0.079818 8.792247 0.236384 3.057639 0.167822 5.89015 0.774643 8.463766 1.786693 2.576685 1.034563 4.707209 2.691295 6.375198 4.970198 1.667989 2.27481 2.50096 5.593392 2.50096 9.92914 0 5.536087-1.775436 9.895371-5.322216 13.105482C777.889743 479.521285 773.536598 481.094106 768.371972 481.094106L768.371972 481.094106 768.371972 481.094106zM264.865413 329.333704c-2.324952 2.161223-4.879124 4.13825-7.658424 5.924943-2.814092 1.806135-5.443989 3.566222-7.918343 5.302773-4.833075 3.358491-9.42158 6.67298-13.797237 9.917884-4.348028 3.25616-8.131191 6.826476-11.368932 10.655687-3.218298 3.851725-5.77247 8.227382-7.662517 13.105482-1.874697 4.879124-2.817162 10.632151-2.817162 17.259082l82.919525 0 0-19.859303-53.397141 0c2.794649-3.913123 6.02011-7.318686 9.677407-10.251481 3.657296-2.920516 7.42204-5.661953 11.289114-8.215102 3.875261-2.557242 7.718799-5.130857 11.536754-7.746428 3.826142-2.587941 7.231705-5.490038 10.243295-8.696056 3.012613-3.191692 5.428639-6.857175 7.257288-10.974959 1.836835-4.143367 2.740414-9.071609 2.740414-14.821567 0-5.5279-1.049912-10.516518-3.14155-14.968923-2.096754-4.455475-4.909823-8.181333-8.467859-11.231809-3.546779-3.039219-7.662517-5.360078-12.350283-6.993275-4.669346-1.622964-9.594519-2.450818-14.743796-2.450818-6.791683 0-12.773931 1.175779-17.999956 3.508917-5.214768 2.336208-9.537214 5.592368-12.975523 9.757225-3.455705 4.176113-6.03239 9.066493-7.746428 14.655791-1.726318 5.581112-2.470261 11.625782-2.26867 18.134009l21.944801 0c0-3.02387 0.296759-6.096858 0.88516-9.182127 0.598634-3.096525 1.592264-5.92085 2.981914-8.467859 1.403976-2.554172 3.252067-4.599761 5.569856-6.180769 2.313695-1.575892 5.139044-2.355651 8.479115-2.355651 4.935406 0 8.997931 1.530866 12.170181 4.634554 3.176342 3.084245 4.756327 7.398504 4.756327 12.933567 0 3.478218-0.774643 6.558369-2.340301 9.277294C269.114181 324.717569 267.166829 327.157131 264.865413 329.333704L264.865413 329.333704 264.865413 329.333704zM499.707023 228.744751l22.909779 0L522.616802 114.824165l-18.225083 0c-0.644683 4.337795-1.992377 7.986905-4.043083 10.906397-2.034333 2.935865-4.532223 5.29254-7.486508 7.075139-2.969635 1.782599-6.29538 3.050476-10.014074 3.752464-3.703345 0.701988-7.547907 1.01512-11.529591 0.88516l0 17.419741 28.388561 0L499.707023 228.744751 499.707023 228.744751 499.707023 228.744751zM847.731414 813.262368 652.80284 813.262368 652.80284 610.505501l0.011256-17.145495c0-3.795443 3.074012-6.9022 6.867408-6.9022l187.044 0c3.783163 0 6.861268 3.106758 6.861268 6.9022l0.858554 213.126029C854.446349 810.212916 851.444992 813.262368 847.731414 813.262368L847.731414 813.262368 847.731414 813.262368zM168.850639 806.481941l0.861624-334.462514c0-3.776 3.074012-6.848988 6.857175-6.848988L363.820146 465.170438c3.787256 0 6.856152 3.072989 6.856152 6.848988l-0.183172 17.026792 0 324.216149-194.919365 0C171.863253 813.262368 168.850639 810.212916 168.850639 806.481941L168.850639 806.481941 168.850639 806.481941zM410.82367 310.411749c0-3.753487 3.012613-6.795776 6.726192-6.795776l188.208523 0c3.703345 0 6.719028 3.042289 6.719028 6.795776l0 502.850619L410.82367 813.262368 410.82367 310.411749 410.82367 310.411749 410.82367 310.411749zM846.726527 545.092699 668.223041 545.092699c-5.386684 0-10.57587 0.908696-15.424294 2.565429L652.798746 310.411749c0-26.258037-21.110807-47.621601-47.044456-47.621601L417.549861 262.790148c-25.943882 0-47.056736 21.363564-47.056736 47.621601L370.493126 426.650123c-4.833075-1.638313-10.021238-2.542916-15.419178-2.542916L176.570461 424.107207c-26.487258 0-48.049343 21.490453-48.049343 47.91222l0 334.462514c0 26.166963 21.11183 47.466058 47.045479 47.466058L847.731414 853.947999c25.943882 0 47.044456-21.299095 47.044456-47.466058L894.77587 593.360006C894.77587 566.747905 873.224018 545.092699 846.726527 545.092699L846.726527 545.092699 846.726527 545.092699zM846.726527 545.092699" fill="#ffffff"></path></g></g></svg>