<?xml version="1.0" standalone="no"?><!DOCTYPE svg PUBLIC "-//W3C//DTD SVG 1.1//EN" "http://www.w3.org/Graphics/SVG/1.1/DTD/svg11.dtd"><svg width="32" height="32" viewBox="0 0 32 32" version="1.1" xmlns="http://www.w3.org/2000/svg" xmlns:xlink="http://www.w3.org/1999/xlink"><defs><style type="text/css"><![CDATA[
@font-face { font-family: ifont; src: url("//at.alicdn.com/t/font_1442373896_4754455.eot?#iefix") format("embedded-opentype"), url("//at.alicdn.com/t/font_1442373896_4754455.woff") format("woff"), url("//at.alicdn.com/t/font_1442373896_4754455.ttf") format("truetype"), url("//at.alicdn.com/t/font_1442373896_4754455.svg#ifont") format("svg"); }

]]></style></defs><g class="transform-group"><g transform="scale(0.03125, 0.03125)"><path d="M510.644119 192.389752c-176.605254 0-320.280514 143.679353-320.280514 320.29177 0 176.60423 143.67526 320.268234 320.280514 320.268234s320.277444-143.664004 320.277444-320.268234C830.921563 336.069105 687.249373 192.389752 510.644119 192.389752zM510.644119 217.029942c163.012677 0 295.639301 132.62253 295.639301 295.652604 0 62.057381-19.24225 119.701243-52.05047 167.31261-0.515746-0.185218-1.034563-0.36532-1.565658-0.531096-59.31799-18.262946-144.104025-56.131415-153.73743-85.064374 3.01773-8.005324 9.839089-27.435862 11.809977-44.99682 7.109931-6.766101 20.632923-22.008246 22.364357-41.292452 1.02126-11.403724-2.381234-22.472827-9.875928-32.201399-1.780553-10.686387-2.899026-26.834158-0.013303-33.649378 0.470721-1.267876 11.45182-31.550577-6.208399-65.722864-16.744359-32.402991-52.65422-56.672744-106.775862-72.140017-6.92676-5.134951-29.123294-20.131503-52.448536-20.131503-19.476587 0-44.824905 9.902534-54.999638 57.020668l-0.252757 1.768273c-2.081405 32.564673-7.255241 71.966055-11.582803 78.695317l-1.313925 1.768273-0.610914 2.108011c-0.578168 2.000564-13.641695 49.514717 26.177196 122.966613 7.021927 18.936281 11.296277 40.278355 9.502421 46.87254l-2.840698 2.520403c-10.56052 11.93789-45.925982 46.111201-69.085448 46.907333l-2.212388 0.261966c-0.782829 0.157589-43.563168 9.945513-77.549214 43.194778-36.434817-49.148373-58.015322-109.934808-58.015322-175.665859C214.998679 349.652472 347.627349 217.029942 510.644119 217.029942zM510.644119 808.305473c-88.477101 0-167.990039-39.081087-222.217081-100.869339 26.216081-27.324322 60.099796-36.680411 66.5016-38.229696 35.151591-2.174526 74.92341-43.453674 84.089164-53.494355 19.573801-12.229532 8.060583-52.652174-0.876973-76.378551l-0.698918-1.527796c-31.748075-58.144258-26.273387-97.068779-24.854061-104.297414 9.035794-16.916275 13.171997-65.866127 14.606673-87.99103 8.214079-36.829813 25.031093-36.845163 30.589692-36.845163 15.398712 0 33.261545 11.7056 38.830377 16.204054l2.009773 1.65264 2.514263 0.695848c48.214095 13.424754 79.674621 33.570583 93.555769 59.905368 12.917194 24.550139 5.556553 45.849234 5.459339 46.182832-6.879688 16.220427-1.815345 44.62536-0.721431 50.14712l0.615007 3.179412 2.152013 2.463098c4.702092 5.375427 6.736425 10.860349 6.229888 16.779152-1.056052 12.386098-12.979616 24.608467-17.454534 28.237111l-4.247744 3.420913-0.298805 5.389754c-1.035586 19.211551-11.82328 45.756113-11.93482 46.016033l-1.276063 3.173273 0.541329 3.340071c8.333806 51.062979 127.293151 93.13826 164.867932 105.22453C684.358533 766.369362 602.305749 808.305473 510.644119 808.305473z" fill="#7cba59"></path></g></g></svg>