<?xml version="1.0" standalone="no"?><!DOCTYPE svg PUBLIC "-//W3C//DTD SVG 1.1//EN" "http://www.w3.org/Graphics/SVG/1.1/DTD/svg11.dtd"><svg width="64" height="64" viewBox="0 0 64 64" version="1.1" xmlns="http://www.w3.org/2000/svg" xmlns:xlink="http://www.w3.org/1999/xlink"><defs><style type="text/css"><![CDATA[
@font-face { font-family: ifont; src: url("//at.alicdn.com/t/font_1442373896_4754455.eot?#iefix") format("embedded-opentype"), url("//at.alicdn.com/t/font_1442373896_4754455.woff") format("woff"), url("//at.alicdn.com/t/font_1442373896_4754455.ttf") format("truetype"), url("//at.alicdn.com/t/font_1442373896_4754455.svg#ifont") format("svg"); }

]]></style></defs><g class="transform-group"><g transform="scale(0.0625, 0.0625)"><path d="M866.048 672.384c-7.04-8.96-18.88-12.736-29.76-9.536-30.08 8.768-61.12 13.248-92.224 13.248-180.8 0-327.936-147.136-327.936-327.936 0-57.344 15.104-113.856 43.712-163.456 5.696-9.856 4.8-22.208-2.24-31.168C450.496 144.576 438.72 140.8 427.776 144c-162.368 47.552-275.84 198.976-275.84 368.256C151.936 723.84 324.096 896 535.68 896c136.768 0 264.192-73.728 332.608-192.448C873.984 693.632 873.152 681.344 866.048 672.384zM535.68 840.192c-180.8 0-327.936-147.136-327.936-327.936 0-121.92 68.864-233.024 173.568-289.216C367.488 263.104 360.32 305.408 360.32 348.16c0 211.584 172.16 383.744 383.744 383.744 12.224 0 24.448-0.576 36.544-1.728C718.976 799.232 629.888 840.192 535.68 840.192zM709.44 311.104 768.96 279.808 828.48 311.104 817.088 244.864 865.216 197.952 798.72 188.288 768.96 128 739.2 188.288 672.704 197.952 720.832 244.864ZM534.08 412.672 569.856 393.856 605.632 412.672 598.784 372.8 627.712 344.64 587.712 338.816 569.856 302.592 552 338.816 512 344.64 540.928 372.8ZM786.816 530.304 768.96 494.08 751.104 530.304 711.104 536.128 740.032 564.352 733.184 604.16 768.96 585.344 804.736 604.16 797.888 564.352 826.816 536.128Z" fill="#7cba59"></path></g></g></svg>