<?xml version="1.0" standalone="no"?><!DOCTYPE svg PUBLIC "-//W3C//DTD SVG 1.1//EN" "http://www.w3.org/Graphics/SVG/1.1/DTD/svg11.dtd"><svg width="64" height="64" viewBox="0 0 64 64" version="1.1" xmlns="http://www.w3.org/2000/svg" xmlns:xlink="http://www.w3.org/1999/xlink"><defs><style type="text/css"><![CDATA[
@font-face { font-family: ifont; src: url("//at.alicdn.com/t/font_1442373896_4754455.eot?#iefix") format("embedded-opentype"), url("//at.alicdn.com/t/font_1442373896_4754455.woff") format("woff"), url("//at.alicdn.com/t/font_1442373896_4754455.ttf") format("truetype"), url("//at.alicdn.com/t/font_1442373896_4754455.svg#ifont") format("svg"); }

]]></style></defs><g class="transform-group"><g transform="scale(0.0625, 0.0625)"><path d="M828.694849 826.703495c174.913728-174.913728 174.927031-459.536115 0-634.469286C743.956909 107.502409 631.286804 60.836577 511.463788 60.836577c-119.836319 0-232.506425 46.666856-317.231061 131.397632C109.493763 276.972149 62.814628 389.628952 62.814628 509.465271s46.679136 232.499262 131.418099 317.244364c84.73794 84.73794 197.394742 131.404796 317.231061 131.404796S743.956909 911.448598 828.694849 826.703495zM251.142877 769.792321c-69.527516-69.540819-107.836007-161.989371-107.836007-260.32705 0-98.330516 38.307468-190.779068 107.836007-260.313747 69.527516-69.527516 161.983231-107.822704 260.319887-107.822704 98.324376 0 190.779068 38.294165 260.319887 107.822704 143.536091 143.549394 143.536091 377.103684 0 520.633634C702.242855 839.327 609.800443 877.621165 511.463788 877.621165S320.68472 839.327 251.142877 769.792321zM540.417213 564.234665c8.968256-8.964162 12.811794-21.106714 11.54801-32.803103 0.156566-1.442862 0.242524-2.907213 0.242524-4.391007L552.207747 302.95901c0-22.226211-18.014282-40.246633-40.246633-40.246633s-40.246633 18.020422-40.246633 40.246633L471.714482 519.116071 364.167047 626.675786c-15.721053 15.714913-15.721053 41.196261 0 56.918337 7.861038 7.853875 18.158568 11.784394 28.456099 11.784394 10.29753 0 20.608364-3.930519 28.456099-11.791557L540.417213 564.234665z" fill="#7cba59"></path></g></g></svg>