<?xml version="1.0" standalone="no"?><!DOCTYPE svg PUBLIC "-//W3C//DTD SVG 1.1//EN" "http://www.w3.org/Graphics/SVG/1.1/DTD/svg11.dtd"><svg width="32" height="32" viewBox="0 0 32 32" version="1.1" xmlns="http://www.w3.org/2000/svg" xmlns:xlink="http://www.w3.org/1999/xlink"><defs><style type="text/css"><![CDATA[
@font-face { font-family: ifont; src: url("//at.alicdn.com/t/font_1442373896_4754455.eot?#iefix") format("embedded-opentype"), url("//at.alicdn.com/t/font_1442373896_4754455.woff") format("woff"), url("//at.alicdn.com/t/font_1442373896_4754455.ttf") format("truetype"), url("//at.alicdn.com/t/font_1442373896_4754455.svg#ifont") format("svg"); }

]]></style></defs><g class="transform-group"><g transform="scale(0.03125, 0.03125)"><path d="M129.213385 807.26784 182.511265 860.56572 272.256242 788.583293 201.19479 717.52184ZM815.403636 511.991814 719.330534 608.063893 591.162456 474.265584 797.77821 276.345885 834.226331 151.066601 708.946023 187.517791 512.712733 392.370389 316.48149 187.517791 191.201182 151.066601 227.652372 276.345885 434.26608 474.264561 306.096978 608.063893 210.024899 511.991814 173.677063 619.401102 369.101941 814.824957 476.514299 778.477121 377.226992 679.19493 512.713756 549.412075 648.199497 679.19493 548.916283 778.477121 656.326595 814.824957 851.750449 619.401102ZM824.236815 717.52184 753.17127 788.583293 842.92034 860.56572 896.21822 807.26784Z" fill="#7cba59"></path></g></g></svg>